<?xml version="1.0" encoding="UTF-8"?><svg xmlns="http://www.w3.org/2000/svg" xmlns:xlink="http://www.w3.org/1999/xlink" fill-opacity="1" color-rendering="auto" color-interpolation="auto" text-rendering="auto" stroke="black" stroke-linecap="square" width="679" stroke-miterlimit="10" shape-rendering="auto" stroke-opacity="1" fill="black" stroke-dasharray="none" font-weight="normal" stroke-width="1" height="246" font-family="'Dialog'" font-style="normal" stroke-linejoin="miter" font-size="12px" stroke-dashoffset="0" image-rendering="auto">
  <!--Generated by ySVG 2.5-->
  <defs id="genericDefs"/>
  <g>
    <defs id="defs1">
      <linearGradient x1="342.72" gradientUnits="userSpaceOnUse" x2="457.72" y1="385.16" y2="415.16" id="linearGradient1" spreadMethod="reflect">
        <stop stop-opacity="1" stop-color="rgb(232,238,247)" offset="0%"/>
        <stop stop-opacity="1" stop-color="rgb(183,201,227)" offset="100%"/>
      </linearGradient>
      <linearGradient x1="487.72" gradientUnits="userSpaceOnUse" x2="568.72" y1="292.88" y2="322.88" id="linearGradient2" spreadMethod="reflect">
        <stop stop-opacity="1" stop-color="rgb(204,255,204)" offset="0%"/>
        <stop stop-opacity="1" stop-color="rgb(163,255,163)" offset="100%"/>
      </linearGradient>
      <linearGradient x1="487.72" gradientUnits="userSpaceOnUse" x2="568.72" y1="385.16" y2="415.16" id="linearGradient3" spreadMethod="reflect">
        <stop stop-opacity="1" stop-color="rgb(204,255,204)" offset="0%"/>
        <stop stop-opacity="1" stop-color="rgb(163,255,163)" offset="100%"/>
      </linearGradient>
      <linearGradient x1="487.72" gradientUnits="userSpaceOnUse" x2="568.72" y1="477.44" y2="507.44" id="linearGradient4" spreadMethod="reflect">
        <stop stop-opacity="1" stop-color="rgb(204,255,204)" offset="0%"/>
        <stop stop-opacity="1" stop-color="rgb(163,255,163)" offset="100%"/>
      </linearGradient>
      <linearGradient x1="598.72" gradientUnits="userSpaceOnUse" x2="687.72" y1="292.88" y2="322.88" id="linearGradient5" spreadMethod="reflect">
        <stop stop-opacity="1" stop-color="rgb(255,204,204)" offset="0%"/>
        <stop stop-opacity="1" stop-color="rgb(255,145,145)" offset="100%"/>
      </linearGradient>
      <linearGradient x1="598.72" gradientUnits="userSpaceOnUse" x2="687.72" y1="385.16" y2="415.16" id="linearGradient6" spreadMethod="reflect">
        <stop stop-opacity="1" stop-color="rgb(255,204,204)" offset="0%"/>
        <stop stop-opacity="1" stop-color="rgb(255,145,145)" offset="100%"/>
      </linearGradient>
      <linearGradient x1="598.72" gradientUnits="userSpaceOnUse" x2="687.72" y1="477.44" y2="507.44" id="linearGradient7" spreadMethod="reflect">
        <stop stop-opacity="1" stop-color="rgb(255,204,204)" offset="0%"/>
        <stop stop-opacity="1" stop-color="rgb(255,145,145)" offset="100%"/>
      </linearGradient>
      <linearGradient x1="907.72" gradientUnits="userSpaceOnUse" x2="975.72" y1="446.3482" y2="476.3482" id="linearGradient8" spreadMethod="reflect">
        <stop stop-opacity="1" stop-color="rgb(255,255,153)" offset="0%"/>
        <stop stop-opacity="1" stop-color="rgb(255,255,91)" offset="100%"/>
      </linearGradient>
      <linearGradient x1="882.72" gradientUnits="userSpaceOnUse" x2="950.72" y1="421.3482" y2="451.3482" id="linearGradient9" spreadMethod="reflect">
        <stop stop-opacity="1" stop-color="rgb(255,255,153)" offset="0%"/>
        <stop stop-opacity="1" stop-color="rgb(255,255,91)" offset="100%"/>
      </linearGradient>
      <linearGradient x1="857.72" gradientUnits="userSpaceOnUse" x2="925.72" y1="396.3482" y2="426.3482" id="linearGradient10" spreadMethod="reflect">
        <stop stop-opacity="1" stop-color="rgb(255,255,153)" offset="0%"/>
        <stop stop-opacity="1" stop-color="rgb(255,255,91)" offset="100%"/>
      </linearGradient>
      <linearGradient x1="832.72" gradientUnits="userSpaceOnUse" x2="900.72" y1="371.3482" y2="401.3482" id="linearGradient11" spreadMethod="reflect">
        <stop stop-opacity="1" stop-color="rgb(255,255,153)" offset="0%"/>
        <stop stop-opacity="1" stop-color="rgb(255,255,91)" offset="100%"/>
      </linearGradient>
      <linearGradient x1="807.72" gradientUnits="userSpaceOnUse" x2="875.72" y1="346.3482" y2="376.3482" id="linearGradient12" spreadMethod="reflect">
        <stop stop-opacity="1" stop-color="rgb(255,255,153)" offset="0%"/>
        <stop stop-opacity="1" stop-color="rgb(255,255,91)" offset="100%"/>
      </linearGradient>
      <linearGradient x1="782.72" gradientUnits="userSpaceOnUse" x2="827.72" y1="421.3482" y2="451.3482" id="linearGradient13" spreadMethod="reflect">
        <stop stop-opacity="1" stop-color="rgb(255,223,191)" offset="0%"/>
        <stop stop-opacity="1" stop-color="rgb(255,198,142)" offset="100%"/>
      </linearGradient>
      <linearGradient x1="757.72" gradientUnits="userSpaceOnUse" x2="802.72" y1="396.3482" y2="426.3482" id="linearGradient14" spreadMethod="reflect">
        <stop stop-opacity="1" stop-color="rgb(255,223,191)" offset="0%"/>
        <stop stop-opacity="1" stop-color="rgb(255,198,142)" offset="100%"/>
      </linearGradient>
      <linearGradient x1="732.72" gradientUnits="userSpaceOnUse" x2="777.72" y1="371.3482" y2="401.3482" id="linearGradient15" spreadMethod="reflect">
        <stop stop-opacity="1" stop-color="rgb(255,223,191)" offset="0%"/>
        <stop stop-opacity="1" stop-color="rgb(255,198,142)" offset="100%"/>
      </linearGradient>
      <clipPath clipPathUnits="userSpaceOnUse" id="clipPath1">
        <path d="M0 0 L679 0 L679 246 L0 246 L0 0 Z"/>
      </clipPath>
      <clipPath clipPathUnits="userSpaceOnUse" id="clipPath2">
        <path d="M327 277 L1006 277 L1006 523 L327 523 L327 277 Z"/>
      </clipPath>
    </defs>
    <g fill="white" text-rendering="geometricPrecision" shape-rendering="geometricPrecision" transform="translate(-327,-277)" stroke="white">
      <rect x="327" width="679" height="246" y="277" clip-path="url(#clipPath2)" stroke="none"/>
    </g>
    <g fill="url(#linearGradient1)" text-rendering="geometricPrecision" shape-rendering="geometricPrecision" transform="matrix(1,0,0,1,-327,-277)" stroke="url(#linearGradient1)">
      <path d="M342.72 385.16 L457.72 385.16 L457.72 415.16 L342.72 415.16 Z" stroke="none" clip-path="url(#clipPath2)"/>
    </g>
    <g text-rendering="geometricPrecision" stroke-miterlimit="1.45" shape-rendering="geometricPrecision" transform="matrix(1,0,0,1,-327,-277)" stroke-linecap="butt">
      <path fill="none" d="M342.72 385.16 L457.72 385.16 L457.72 415.16 L342.72 415.16 Z" clip-path="url(#clipPath2)"/>
      <text x="352.1995" xml:space="preserve" y="404.8739" clip-path="url(#clipPath2)" font-family="sans-serif" stroke="none">AdWords Account</text>
    </g>
    <g fill="url(#linearGradient2)" text-rendering="geometricPrecision" shape-rendering="geometricPrecision" transform="matrix(1,0,0,1,-327,-277)" stroke="url(#linearGradient2)">
      <path d="M487.72 292.88 L568.72 292.88 L568.72 322.88 L487.72 322.88 Z" stroke="none" clip-path="url(#clipPath2)"/>
    </g>
    <g text-rendering="geometricPrecision" stroke-miterlimit="1.45" shape-rendering="geometricPrecision" transform="matrix(1,0,0,1,-327,-277)" stroke-linecap="butt">
      <path fill="none" d="M487.72 292.88 L568.72 292.88 L568.72 322.88 L487.72 322.88 Z" clip-path="url(#clipPath2)"/>
      <text x="495.8675" xml:space="preserve" y="312.5939" clip-path="url(#clipPath2)" font-family="sans-serif" stroke="none">Campaign 1</text>
    </g>
    <g fill="url(#linearGradient3)" text-rendering="geometricPrecision" shape-rendering="geometricPrecision" transform="matrix(1,0,0,1,-327,-277)" stroke="url(#linearGradient3)">
      <path d="M487.72 385.16 L568.72 385.16 L568.72 415.16 L487.72 415.16 Z" stroke="none" clip-path="url(#clipPath2)"/>
    </g>
    <g text-rendering="geometricPrecision" stroke-miterlimit="1.45" shape-rendering="geometricPrecision" transform="matrix(1,0,0,1,-327,-277)" stroke-linecap="butt">
      <path fill="none" d="M487.72 385.16 L568.72 385.16 L568.72 415.16 L487.72 415.16 Z" clip-path="url(#clipPath2)"/>
      <text x="495.8675" xml:space="preserve" y="404.8739" clip-path="url(#clipPath2)" font-family="sans-serif" stroke="none">Campaign 2</text>
    </g>
    <g fill="url(#linearGradient4)" text-rendering="geometricPrecision" shape-rendering="geometricPrecision" transform="matrix(1,0,0,1,-327,-277)" stroke="url(#linearGradient4)">
      <path d="M487.72 477.44 L568.72 477.44 L568.72 507.44 L487.72 507.44 Z" stroke="none" clip-path="url(#clipPath2)"/>
    </g>
    <g text-rendering="geometricPrecision" stroke-miterlimit="1.45" shape-rendering="geometricPrecision" transform="matrix(1,0,0,1,-327,-277)" stroke-linecap="butt">
      <path fill="none" d="M487.72 477.44 L568.72 477.44 L568.72 507.44 L487.72 507.44 Z" clip-path="url(#clipPath2)"/>
      <text x="495.8675" xml:space="preserve" y="497.1539" clip-path="url(#clipPath2)" font-family="sans-serif" stroke="none">Campaign 3</text>
    </g>
    <g fill="url(#linearGradient5)" text-rendering="geometricPrecision" shape-rendering="geometricPrecision" transform="matrix(1,0,0,1,-327,-277)" stroke="url(#linearGradient5)">
      <path d="M598.72 292.88 L687.72 292.88 L687.72 322.88 L598.72 322.88 Z" stroke="none" clip-path="url(#clipPath2)"/>
    </g>
    <g text-rendering="geometricPrecision" stroke-miterlimit="1.45" shape-rendering="geometricPrecision" transform="matrix(1,0,0,1,-327,-277)" stroke-linecap="butt">
      <path fill="none" d="M598.72 292.88 L687.72 292.88 L687.72 322.88 L598.72 322.88 Z" clip-path="url(#clipPath2)"/>
      <text x="608.5325" xml:space="preserve" y="312.5939" clip-path="url(#clipPath2)" font-family="sans-serif" stroke="none">Ad Group 2A</text>
    </g>
    <g fill="url(#linearGradient6)" text-rendering="geometricPrecision" shape-rendering="geometricPrecision" transform="matrix(1,0,0,1,-327,-277)" stroke="url(#linearGradient6)">
      <path d="M598.72 385.16 L687.72 385.16 L687.72 415.16 L598.72 415.16 Z" stroke="none" clip-path="url(#clipPath2)"/>
    </g>
    <g text-rendering="geometricPrecision" stroke-miterlimit="1.45" shape-rendering="geometricPrecision" transform="matrix(1,0,0,1,-327,-277)" stroke-linecap="butt">
      <path fill="none" d="M598.72 385.16 L687.72 385.16 L687.72 415.16 L598.72 415.16 Z" clip-path="url(#clipPath2)"/>
      <text x="608.5325" xml:space="preserve" y="404.8739" clip-path="url(#clipPath2)" font-family="sans-serif" stroke="none">Ad Group 2B</text>
    </g>
    <g fill="url(#linearGradient7)" text-rendering="geometricPrecision" shape-rendering="geometricPrecision" transform="matrix(1,0,0,1,-327,-277)" stroke="url(#linearGradient7)">
      <path d="M598.72 477.44 L687.72 477.44 L687.72 507.44 L598.72 507.44 Z" stroke="none" clip-path="url(#clipPath2)"/>
    </g>
    <g text-rendering="geometricPrecision" stroke-miterlimit="1.45" shape-rendering="geometricPrecision" transform="matrix(1,0,0,1,-327,-277)" stroke-linecap="butt">
      <path fill="none" d="M598.72 477.44 L687.72 477.44 L687.72 507.44 L598.72 507.44 Z" clip-path="url(#clipPath2)"/>
      <text x="608.2014" xml:space="preserve" y="497.1539" clip-path="url(#clipPath2)" font-family="sans-serif" stroke="none">Ad Group 2C</text>
    </g>
    <g text-rendering="geometricPrecision" stroke-miterlimit="1.45" shape-rendering="geometricPrecision" transform="matrix(1,0,0,1,-327,-277)" stroke-linecap="butt">
      <path fill="none" d="M507.4388 322.862 L421.0303 385.1571" clip-path="url(#clipPath2)"/>
    </g>
    <g stroke-linecap="butt" transform="matrix(1,0,0,1,-327,-277)" fill="white" text-rendering="geometricPrecision" shape-rendering="geometricPrecision" stroke="white" stroke-miterlimit="1.45">
      <rect x="440.101" width="4" height="4" y="330.9829" clip-path="url(#clipPath2)" stroke="none"/>
      <path fill="none" d="M487.7513 400.16 L457.7051 400.16" clip-path="url(#clipPath2)" stroke="black"/>
      <rect x="470.72" width="4" height="4" y="368.16" clip-path="url(#clipPath2)" stroke="none"/>
      <path fill="none" d="M507.4388 477.458 L421.0303 415.1629" clip-path="url(#clipPath2)" stroke="black"/>
      <rect x="492.839" width="4" height="4" y="429.3909" clip-path="url(#clipPath2)" stroke="none"/>
      <path fill="none" d="M624.5493 322.862 L546.9167 385.1571" clip-path="url(#clipPath2)" stroke="black"/>
      <path fill="none" d="M598.7192 400.16 L568.7365 400.16" clip-path="url(#clipPath2)" stroke="black"/>
      <rect x="581.72" width="4" height="4" y="368.16" clip-path="url(#clipPath2)" stroke="none"/>
      <path fill="none" d="M624.5493 477.458 L546.9167 415.1629" clip-path="url(#clipPath2)" stroke="black"/>
      <rect x="607.5112" width="4" height="4" y="424.9265" clip-path="url(#clipPath2)" stroke="none"/>
    </g>
    <g fill="rgb(245,245,245)" text-rendering="geometricPrecision" shape-rendering="geometricPrecision" transform="matrix(1,0,0,1,-327,-277)" stroke="rgb(245,245,245)">
      <rect x="717.72" y="308.9718" clip-path="url(#clipPath2)" width="273" rx="4" ry="4" height="182.3765" stroke="none"/>
      <rect x="717.72" y="308.9718" clip-path="url(#clipPath2)" fill="rgb(235,235,235)" width="273" height="22.3765" stroke="none"/>
    </g>
    <g font-size="15px" stroke-linecap="butt" transform="matrix(1,0,0,1,-327,-277)" text-rendering="geometricPrecision" font-family="sans-serif" shape-rendering="geometricPrecision" stroke-miterlimit="1.45">
      <text x="902.0012" xml:space="preserve" y="326.0523" clip-path="url(#clipPath2)" stroke="none">Ad Group 2B</text>
      <rect x="717.72" y="308.9718" clip-path="url(#clipPath2)" fill="none" width="273" stroke-dasharray="6,2" rx="4" ry="4" height="182.3765"/>
    </g>
    <g fill="url(#linearGradient8)" text-rendering="geometricPrecision" shape-rendering="geometricPrecision" transform="matrix(1,0,0,1,-327,-277)" stroke="url(#linearGradient8)">
      <path d="M907.72 446.3482 L975.72 446.3482 L975.72 476.3482 L907.72 476.3482 Z" stroke="none" clip-path="url(#clipPath2)"/>
    </g>
    <g text-rendering="geometricPrecision" stroke-miterlimit="1.45" shape-rendering="geometricPrecision" transform="matrix(1,0,0,1,-327,-277)" stroke-linecap="butt">
      <path fill="none" d="M907.72 446.3482 L975.72 446.3482 L975.72 476.3482 L907.72 476.3482 Z" clip-path="url(#clipPath2)"/>
      <text x="912.7073" xml:space="preserve" y="466.0621" clip-path="url(#clipPath2)" font-family="sans-serif" stroke="none">Keyword E</text>
    </g>
    <g fill="url(#linearGradient9)" text-rendering="geometricPrecision" shape-rendering="geometricPrecision" transform="matrix(1,0,0,1,-327,-277)" stroke="url(#linearGradient9)">
      <path d="M882.72 421.3482 L950.72 421.3482 L950.72 451.3482 L882.72 451.3482 Z" stroke="none" clip-path="url(#clipPath2)"/>
    </g>
    <g text-rendering="geometricPrecision" stroke-miterlimit="1.45" shape-rendering="geometricPrecision" transform="matrix(1,0,0,1,-327,-277)" stroke-linecap="butt">
      <path fill="none" d="M882.72 421.3482 L950.72 421.3482 L950.72 451.3482 L882.72 451.3482 Z" clip-path="url(#clipPath2)"/>
      <text x="887.3762" xml:space="preserve" y="441.0621" clip-path="url(#clipPath2)" font-family="sans-serif" stroke="none">Keyword D</text>
    </g>
    <g fill="url(#linearGradient10)" text-rendering="geometricPrecision" shape-rendering="geometricPrecision" transform="matrix(1,0,0,1,-327,-277)" stroke="url(#linearGradient10)">
      <path d="M857.72 396.3482 L925.72 396.3482 L925.72 426.3482 L857.72 426.3482 Z" stroke="none" clip-path="url(#clipPath2)"/>
    </g>
    <g text-rendering="geometricPrecision" stroke-miterlimit="1.45" shape-rendering="geometricPrecision" transform="matrix(1,0,0,1,-327,-277)" stroke-linecap="butt">
      <path fill="none" d="M857.72 396.3482 L925.72 396.3482 L925.72 426.3482 L857.72 426.3482 Z" clip-path="url(#clipPath2)"/>
      <text x="862.3762" xml:space="preserve" y="416.0621" clip-path="url(#clipPath2)" font-family="sans-serif" stroke="none">Keyword C</text>
    </g>
    <g fill="url(#linearGradient11)" text-rendering="geometricPrecision" shape-rendering="geometricPrecision" transform="matrix(1,0,0,1,-327,-277)" stroke="url(#linearGradient11)">
      <path d="M832.72 371.3482 L900.72 371.3482 L900.72 401.3482 L832.72 401.3482 Z" stroke="none" clip-path="url(#clipPath2)"/>
    </g>
    <g text-rendering="geometricPrecision" stroke-miterlimit="1.45" shape-rendering="geometricPrecision" transform="matrix(1,0,0,1,-327,-277)" stroke-linecap="butt">
      <path fill="none" d="M832.72 371.3482 L900.72 371.3482 L900.72 401.3482 L832.72 401.3482 Z" clip-path="url(#clipPath2)"/>
      <text x="837.7073" xml:space="preserve" y="391.0621" clip-path="url(#clipPath2)" font-family="sans-serif" stroke="none">Keyword B</text>
    </g>
    <g fill="url(#linearGradient12)" text-rendering="geometricPrecision" shape-rendering="geometricPrecision" transform="matrix(1,0,0,1,-327,-277)" stroke="url(#linearGradient12)">
      <path d="M807.72 346.3482 L875.72 346.3482 L875.72 376.3482 L807.72 376.3482 Z" stroke="none" clip-path="url(#clipPath2)"/>
    </g>
    <g text-rendering="geometricPrecision" stroke-miterlimit="1.45" shape-rendering="geometricPrecision" transform="matrix(1,0,0,1,-327,-277)" stroke-linecap="butt">
      <path fill="none" d="M807.72 346.3482 L875.72 346.3482 L875.72 376.3482 L807.72 376.3482 Z" clip-path="url(#clipPath2)"/>
      <text x="812.7073" xml:space="preserve" y="366.0621" clip-path="url(#clipPath2)" font-family="sans-serif" stroke="none">Keyword A</text>
    </g>
    <g fill="url(#linearGradient13)" text-rendering="geometricPrecision" shape-rendering="geometricPrecision" transform="matrix(1,0,0,1,-327,-277)" stroke="url(#linearGradient13)">
      <path d="M782.72 421.3482 L827.72 421.3482 L827.72 451.3482 L782.72 451.3482 Z" stroke="none" clip-path="url(#clipPath2)"/>
    </g>
    <g text-rendering="geometricPrecision" stroke-miterlimit="1.45" shape-rendering="geometricPrecision" transform="matrix(1,0,0,1,-327,-277)" stroke-linecap="butt">
      <path fill="none" d="M782.72 421.3482 L827.72 421.3482 L827.72 451.3482 L782.72 451.3482 Z" clip-path="url(#clipPath2)"/>
      <text x="792.8772" xml:space="preserve" y="441.0621" clip-path="url(#clipPath2)" font-family="sans-serif" stroke="none">Ad 3</text>
    </g>
    <g fill="url(#linearGradient14)" text-rendering="geometricPrecision" shape-rendering="geometricPrecision" transform="matrix(1,0,0,1,-327,-277)" stroke="url(#linearGradient14)">
      <path d="M757.72 396.3482 L802.72 396.3482 L802.72 426.3482 L757.72 426.3482 Z" stroke="none" clip-path="url(#clipPath2)"/>
    </g>
    <g text-rendering="geometricPrecision" stroke-miterlimit="1.45" shape-rendering="geometricPrecision" transform="matrix(1,0,0,1,-327,-277)" stroke-linecap="butt">
      <path fill="none" d="M757.72 396.3482 L802.72 396.3482 L802.72 426.3482 L757.72 426.3482 Z" clip-path="url(#clipPath2)"/>
      <text x="767.8772" xml:space="preserve" y="416.0621" clip-path="url(#clipPath2)" font-family="sans-serif" stroke="none">Ad 2</text>
    </g>
    <g fill="url(#linearGradient15)" text-rendering="geometricPrecision" shape-rendering="geometricPrecision" transform="matrix(1,0,0,1,-327,-277)" stroke="url(#linearGradient15)">
      <path d="M732.72 371.3482 L777.72 371.3482 L777.72 401.3482 L732.72 401.3482 Z" stroke="none" clip-path="url(#clipPath2)"/>
    </g>
    <g text-rendering="geometricPrecision" stroke-miterlimit="1.45" shape-rendering="geometricPrecision" transform="matrix(1,0,0,1,-327,-277)" stroke-linecap="butt">
      <path fill="none" d="M732.72 371.3482 L777.72 371.3482 L777.72 401.3482 L732.72 401.3482 Z" clip-path="url(#clipPath2)"/>
      <text x="742.8772" xml:space="preserve" y="391.0621" clip-path="url(#clipPath2)" font-family="sans-serif" stroke="none">Ad 1</text>
    </g>
    <g text-rendering="geometricPrecision" stroke-miterlimit="1.45" shape-rendering="geometricPrecision" transform="matrix(1,0,0,1,-327,-277)" stroke-linecap="butt">
      <path fill="none" d="M717.7345 400.16 L687.7177 400.16" clip-path="url(#clipPath2)"/>
      <rect x="697.22" y="368.16" clip-path="url(#clipPath2)" fill="white" width="4" height="4" stroke="none"/>
    </g>
  </g>
</svg>
